<svg xmlns="http://www.w3.org/2000/svg" viewBox="0 0 33 32" width="33" height="32" fill="none"><path fill="#FBC02D" d="M29.574 13.389H28.5v-.055h-12v5.333h7.535C22.936 21.772 19.982 24 16.5 24a8 8 0 0 1 0-16c2.04 0 3.895.77 5.307 2.026l3.772-3.771A13.272 13.272 0 0 0 16.5 2.667C9.137 2.667 3.167 8.637 3.167 16c0 7.364 5.97 13.334 13.333 13.334S29.833 23.364 29.833 16c0-.894-.092-1.766-.259-2.611Z"/><path fill="#E53935" d="m4.704 9.794 4.381 3.213A7.996 7.996 0 0 1 16.5 8c2.04 0 3.895.77 5.308 2.026l3.771-3.771A13.272 13.272 0 0 0 16.5 2.667c-5.121 0-9.562 2.891-11.796 7.127Z"/><path fill="#4CAF50" d="M16.5 29.334c3.444 0 6.573-1.318 8.94-3.462l-4.127-3.491A7.94 7.94 0 0 1 16.5 24c-3.468 0-6.412-2.212-7.522-5.298l-4.348 3.35c2.207 4.318 6.688 7.28 11.87 7.28Z"/><path fill="#1565C0" d="m29.574 13.388-.01-.055H16.5v5.333h7.535a8.026 8.026 0 0 1-2.724 3.714l.002-.001 4.126 3.492c-.292.265 4.394-3.205 4.394-9.871 0-.894-.092-1.767-.259-2.612Z"/></svg>
