<svg xmlns="http://www.w3.org/2000/svg" width="33" height="32" fill="none" viewBox="0 0 33 32"><rect width="32" height="32" x=".245" fill="#00C240" rx="16"/><path fill="#fff" d="M15.321 20.616a.92.92 0 0 1-.652-.27l-4.616-4.616a.923.923 0 1 1 1.305-1.305l4.616 4.615a.923.923 0 0 1-.653 1.576Z"/><path fill="#fff" d="M15.321 20.616a.923.923 0 0 1-.653-1.576l6.462-6.462a.923.923 0 1 1 1.305 1.306l-6.461 6.461a.92.92 0 0 1-.653.27Z"/><path fill="#fff" fill-rule="evenodd" d="M16.245 28c-6.617 0-12-5.383-12-12s5.383-12 12-12c6.616 0 12 5.383 12 12s-5.384 12-12 12Zm0-22.154C10.645 5.846 6.09 10.401 6.09 16s4.555 10.154 10.154 10.154c5.598 0 10.153-4.555 10.153-10.154S21.843 5.846 16.245 5.846Z" clip-rule="evenodd"/></svg>
