<svg width="20" height="20" viewBox="0 0 20 20" fill="none" xmlns="http://www.w3.org/2000/svg">
<path d="M8.67489 7.6541C8.82352 7.16677 9.51343 7.16688 9.66219 7.6541L10.0284 8.85527C10.0785 9.01973 10.2068 9.14884 10.3712 9.19902L11.5723 9.56426C12.0602 9.71273 12.0602 10.4031 11.5723 10.5516L10.3712 10.9178C10.207 10.9679 10.0786 11.0964 10.0284 11.2605L9.66219 12.4617C9.51371 12.9495 8.82336 12.9495 8.67489 12.4617L8.30965 11.2605C8.25947 11.0961 8.13036 10.9678 7.9659 10.9178L6.76473 10.5516C6.27751 10.4028 6.27739 9.71289 6.76473 9.56426L7.9659 9.19902C8.13049 9.14892 8.25955 9.01986 8.30965 8.85527L8.67489 7.6541Z" fill="#0048DB"/>
<path d="M13.9307 2.26152C14.1388 1.57899 15.1055 1.57902 15.3136 2.26152L15.8253 3.94316C15.8954 4.17342 16.0756 4.35339 16.3057 4.42363L17.9874 4.93535C18.6703 5.14321 18.6703 6.11026 17.9874 6.31816L16.3057 6.82988C16.0755 6.90008 15.8954 7.081 15.8253 7.31133L15.3136 8.99199C15.1057 9.67494 14.1386 9.67494 13.9307 8.99199L13.419 7.31133C13.3489 7.08096 13.1689 6.90005 12.9386 6.82988L11.2569 6.31816C10.5741 6.11018 10.574 5.1432 11.2569 4.93535L12.9386 4.42363C13.1688 4.35342 13.3489 4.17344 13.419 3.94316L13.9307 2.26152Z" fill="#0048DB"/>
<path d="M1.24951 15.1699V5.9297C1.24951 3.81444 2.96434 2.09962 5.07959 2.09962H9.69971C10.1138 2.09972 10.4497 2.43547 10.4497 2.84962C10.4497 3.26377 10.1138 3.59952 9.69971 3.59962H5.07959C3.79276 3.59962 2.74951 4.64287 2.74951 5.9297V15.1699C2.74967 16.4566 3.79286 17.5 5.07959 17.5H14.3198C15.6064 17.4999 16.6497 16.4565 16.6499 15.1699V10.5498C16.6499 10.1356 16.9857 9.79982 17.3999 9.79982C17.8139 9.80002 18.1499 10.1357 18.1499 10.5498V15.1699C18.1497 17.285 16.4348 18.9999 14.3198 19H5.07959C2.96444 19 1.24967 17.285 1.24951 15.1699Z" fill="#0048DB"/>
</svg>
