<svg width="20" height="20" viewBox="0 0 20 20" fill="none" xmlns="http://www.w3.org/2000/svg">
<path d="M5.67105 6.43697C5.97578 5.43579 7.39269 5.43579 7.69742 6.43697L8.44742 8.90084C8.5502 9.23854 8.81484 9.50303 9.1525 9.60591L11.6173 10.3559C12.6185 10.6606 12.6185 12.0785 11.6173 12.3833L9.1525 13.1333C8.81481 13.2361 8.55021 13.5006 8.44742 13.8383L7.69742 16.3032C7.39255 17.304 5.97594 17.304 5.67105 16.3032L4.92105 13.8383C4.81827 13.5006 4.55362 13.2361 4.21597 13.1333L1.75113 12.3833C0.749949 12.0785 0.749949 10.6606 1.75113 10.3559L4.21597 9.60591C4.55358 9.50301 4.81828 9.2385 4.92105 8.90084L5.67105 6.43697Z" fill="#0048DB"/>
<path d="M14.5343 3.34224C14.7375 2.67493 15.6826 2.67503 15.8859 3.34224L16.3859 4.9858C16.4544 5.21077 16.6307 5.3869 16.8556 5.45552L18.4992 5.95552C19.1666 6.15868 19.1666 7.10393 18.4992 7.30709L16.8556 7.80709C16.6307 7.87572 16.4544 8.05182 16.3859 8.27681L15.8859 9.92037C15.6826 10.5875 14.7375 10.5876 14.5343 9.92037L14.0343 8.27681C13.9657 8.05173 13.7897 7.87561 13.5646 7.80709L11.922 7.30709C11.2546 7.10393 11.2546 6.15868 11.922 5.95552L13.5646 5.45552C13.7897 5.38701 13.9657 5.21085 14.0343 4.9858L14.5343 3.34224Z" fill="#0048DB"/>
</svg>
