<svg width="24" height="24" viewBox="0 0 24 24" fill="none" xmlns="http://www.w3.org/2000/svg">
<path fill-rule="evenodd" clip-rule="evenodd" d="M12 9C10.3431 9 9 10.3431 9 12C9 13.6569 10.3431 15 12 15C13.6569 15 15 13.6569 15 12C15 10.3431 13.6569 9 12 9ZM7 12C7 9.23858 9.23858 7 12 7C14.7614 7 17 9.23858 17 12C17 14.7614 14.7614 17 12 17C9.23858 17 7 14.7614 7 12Z" fill="#0048DB"/>
<path fill-rule="evenodd" clip-rule="evenodd" d="M7.30009 2.05511C9.54474 0.994352 12.0822 0.724112 14.4999 1.28833C16.9176 1.85255 19.0734 3.21805 20.6166 5.16279C22.1599 7.10753 22.9999 9.51714 23 11.9998V12.9999C23 14.0607 22.5786 15.0781 21.8284 15.8283C21.0783 16.5784 20.0609 16.9999 19 16.9999C17.9391 16.9999 16.9217 16.5784 16.1716 15.8283C15.4214 15.0781 15 14.0607 15 12.9999V7.99987C15 7.44758 15.4477 6.99987 16 6.99987C16.5523 6.99987 17 7.44758 17 7.99987V12.9999C17 13.5303 17.2107 14.039 17.5858 14.4141C17.9609 14.7892 18.4696 14.9999 19 14.9999C19.5304 14.9999 20.0392 14.7892 20.4142 14.4141C20.7893 14.039 21 13.5303 21 12.9999V11.9999C21 11.9999 21 12 21 11.9999C20.9999 9.96868 20.3126 7.99714 19.05 6.40601C17.7873 4.81486 16.0235 3.69763 14.0454 3.236C12.0673 2.77436 9.99115 2.99547 8.15462 3.86336C6.3181 4.73126 4.82917 6.19489 3.92994 8.01628C3.03072 9.83767 2.77408 11.9097 3.20176 13.8954C3.62944 15.8812 4.71629 17.6638 6.28558 18.9536C7.85487 20.2433 9.8143 20.9642 11.8453 20.9992C13.8762 21.0341 15.8593 20.3809 17.472 19.1459C17.9105 18.8101 18.5382 18.8934 18.874 19.3319C19.2097 19.7703 19.1265 20.398 18.688 20.7338C16.7169 22.2433 14.2932 23.0416 11.8109 22.9989C9.32859 22.9562 6.93372 22.075 5.0157 20.4987C3.09768 18.9224 1.76932 16.7435 1.24659 14.3165C0.723873 11.8895 1.03754 9.35705 2.13659 7.1309C3.23565 4.90476 5.05545 3.11587 7.30009 2.05511Z" fill="#0048DB"/>
</svg>
