<svg width="20" height="20" viewBox="0 0 20 20" fill="none" xmlns="http://www.w3.org/2000/svg">
<path d="M9.875 1.7043C10.0663 1.64359 10.2744 1.65342 10.4601 1.73441L17.834 4.95218C18.1375 5.08477 18.3337 5.38507 18.3337 5.71634V8.3319C18.3337 8.79214 17.9606 9.16523 17.5003 9.16523H16.667V14.1652C16.9826 14.1652 17.2713 14.3435 17.4124 14.6258L18.2458 16.2925C18.3036 16.4082 18.3337 16.5359 18.3337 16.6652V17.4986C18.3337 17.9588 17.9606 18.3319 17.5003 18.3319H2.50033C2.04009 18.3319 1.66699 17.9588 1.66699 17.4986V16.6652L1.67269 16.5684C1.6839 16.4726 1.71154 16.3792 1.75488 16.2925L2.58822 14.6258C2.72938 14.3435 3.01802 14.1652 3.33366 14.1652V9.16523H2.50033C2.04009 9.16523 1.66699 8.79214 1.66699 8.3319V5.82702L1.67594 5.70413C1.71773 5.4231 1.90111 5.17883 2.16667 5.06286L9.79362 1.73441L9.875 1.7043ZM3.43213 16.6652H16.5685L16.1519 15.8319H3.8488L3.43213 16.6652ZM13.0358 14.1652H15.0003V9.16523H13.0358V14.1652ZM8.63151 14.1652H11.3691V9.16523H8.63151V14.1652ZM5.00033 14.1652H6.96484V9.16523H5.00033V14.1652ZM3.33366 6.37227V7.49857H16.667V6.26159L10.1265 3.40759L3.33366 6.37227Z" fill="#0048DB"/>
</svg>
