<svg width="24" height="26" viewBox="0 0 24 26" fill="none" xmlns="http://www.w3.org/2000/svg">
<path fill-rule="evenodd" clip-rule="evenodd" d="M21.6943 25.5394H1.97244C1.42786 25.5394 0.986328 25.0979 0.986328 24.5534V14.8187C0.986328 13.6616 1.92776 12.7202 3.08487 12.7202H20.5819C21.739 12.7202 22.6804 13.6616 22.6804 14.8187V24.5534C22.6804 25.0979 22.2388 25.5394 21.6943 25.5394H21.6943ZM2.95855 23.5673H20.7082V14.8187C20.7082 14.7491 20.6515 14.6924 20.5819 14.6924H3.08487C3.01516 14.6924 2.95855 14.7491 2.95855 14.8187V23.5673Z" fill="#0048DB"/>
<path d="M22.6802 25.5401H0.986107C0.441535 25.5401 0 25.0985 0 24.554C0 24.0094 0.441538 23.5679 0.986107 23.5679H22.6802C23.2247 23.5679 23.6663 24.0094 23.6663 24.554C23.6663 25.0985 23.2247 25.5401 22.6802 25.5401Z" fill="#0048DB"/>
<path fill-rule="evenodd" clip-rule="evenodd" d="M6.90293 14.6932H3.9446C3.40011 14.6932 2.9585 14.2516 2.9585 13.7071V8.77663C2.9585 8.2321 3.40011 7.79053 3.9446 7.79053H6.90293C7.44743 7.79053 7.88904 8.2321 7.88904 8.77663V13.7071C7.88904 14.2516 7.44743 14.6932 6.90293 14.6932ZM4.93071 12.721H5.91682V9.7627H4.93071V12.721Z" fill="#0048DB"/>
<path fill-rule="evenodd" clip-rule="evenodd" d="M13.3126 14.693H10.3543C9.8097 14.693 9.36816 14.2514 9.36816 13.7069V7.79031C9.36816 7.24581 9.8097 6.8042 10.3543 6.8042H13.3126C13.857 6.8042 14.2986 7.24581 14.2986 7.79031V13.7069C14.2986 14.2514 13.857 14.693 13.3126 14.693ZM11.3404 12.7208H12.3265V8.77642H11.3404V12.7208Z" fill="#0048DB"/>
<path fill-rule="evenodd" clip-rule="evenodd" d="M19.7222 14.6932H16.7639C16.2194 14.6932 15.7778 14.2516 15.7778 13.7071V8.77663C15.7778 8.2321 16.2194 7.79053 16.7639 7.79053H19.7222C20.2667 7.79053 20.7083 8.2321 20.7083 8.77663V13.7071C20.7083 14.2516 20.2667 14.6932 19.7222 14.6932ZM17.75 12.721H18.7362V9.7627H17.75V12.721Z" fill="#0048DB"/>
<path fill-rule="evenodd" clip-rule="evenodd" d="M5.42359 7.78949C3.79242 7.78949 2.46533 6.4624 2.46533 4.8312C2.46533 3.41228 4.22551 1.72203 4.76477 1.23778C5.13958 0.901208 5.70759 0.901208 6.0824 1.23778C6.62166 1.72203 8.38184 3.41228 8.38184 4.8312C8.38184 6.4624 7.05475 7.78949 5.42359 7.78949ZM5.42359 3.36331C4.87545 3.96588 4.45079 4.58001 4.43748 4.83345C4.43748 5.37493 4.87982 5.81731 5.42359 5.81731C5.96677 5.81731 6.40889 5.3757 6.40969 4.8328C6.3955 4.57885 5.97114 3.9653 5.42359 3.36332V3.36331Z" fill="#0048DB"/>
<path fill-rule="evenodd" clip-rule="evenodd" d="M18.243 7.78949C16.6118 7.78949 15.2847 6.4624 15.2847 4.8312C15.2847 3.41228 17.0448 1.72203 17.5842 1.23778C17.9589 0.901208 18.5269 0.901208 18.9018 1.23778C19.4411 1.72203 21.2012 3.41228 21.2012 4.8312C21.2012 6.4624 19.8742 7.78949 18.243 7.78949ZM18.243 3.36331C17.6949 3.96588 17.2701 4.58001 17.2569 4.83345C17.2569 5.37493 17.6992 5.81731 18.243 5.81731C18.7862 5.81731 19.2282 5.3757 19.2291 4.8328C19.2148 4.57885 18.7905 3.9653 18.243 3.36332V3.36331Z" fill="#0048DB"/>
<path fill-rule="evenodd" clip-rule="evenodd" d="M11.8338 6.80411C10.2026 6.80411 8.87549 5.47702 8.87549 3.84582C8.87549 2.42694 10.6357 0.736654 11.175 0.252403C11.5498 -0.0841343 12.1177 -0.0841343 12.4926 0.252403C13.0319 0.736654 14.7921 2.42694 14.7921 3.84582C14.7921 5.47702 13.465 6.80411 11.8338 6.80411ZM11.8338 2.37793C11.2857 2.98054 10.861 3.59467 10.8477 3.84808C10.8477 4.38959 11.2901 4.83193 11.8338 4.83193C12.3771 4.83193 12.819 4.39036 12.8199 3.84742C12.8057 3.59347 12.3814 2.97992 11.8338 2.37794V2.37793Z" fill="#0048DB"/>
<path d="M18.4069 19.6231C17.1234 19.6231 16.4509 18.8162 16.0059 18.2822C15.6083 17.8051 15.4517 17.6509 15.1197 17.6509C14.7878 17.6509 14.6314 17.805 14.2339 18.2821C13.7889 18.816 13.1165 19.6231 11.8329 19.6231C10.5494 19.6231 9.87688 18.8162 9.43184 18.2822C9.03433 17.8051 8.87796 17.6509 8.54593 17.6509C8.21398 17.6509 8.05761 17.805 7.66009 18.2821C7.21507 18.816 6.54279 19.6231 5.25915 19.6231C3.97551 19.6231 3.30316 18.816 2.85813 18.2821C2.46061 17.805 2.30424 17.6509 1.97244 17.6509C1.42786 17.6509 0.986328 17.2093 0.986328 16.6648C0.986328 16.1203 1.42787 15.6787 1.97244 15.6787C3.25601 15.6787 3.92835 16.4857 4.37338 17.0197C4.77082 17.4967 4.92727 17.6509 5.25915 17.6509C5.59103 17.6509 5.74733 17.4967 6.14491 17.0197C6.58987 16.4857 7.26243 15.6787 8.54593 15.6787C9.82957 15.6787 10.5021 16.4857 10.9471 17.0197C11.3445 17.4967 11.501 17.6509 11.8329 17.6509C12.1647 17.6509 12.3212 17.4967 12.7188 17.0197C13.1637 16.4857 13.8362 15.6787 15.1197 15.6787C16.4034 15.6787 17.0758 16.4856 17.5208 17.0196C17.9184 17.4967 18.0749 17.6509 18.4069 17.6509C18.739 17.6509 18.8956 17.4967 19.2931 17.0196C19.7382 16.4856 20.4106 15.6787 21.6943 15.6787C22.2388 15.6787 22.6804 16.1203 22.6804 16.6648C22.6804 17.2093 22.2388 17.6509 21.6943 17.6509C21.3623 17.6509 21.2058 17.8051 20.8082 18.2822C20.3632 18.8162 19.6907 19.6231 18.4069 19.6231L18.4069 19.6231Z" fill="#0048DB"/>
</svg>
