<svg width="24" height="24" viewBox="0 0 24 24" fill="none" xmlns="http://www.w3.org/2000/svg">
<g clip-path="url(#clip0_635_2480)">
<path fill-rule="evenodd" clip-rule="evenodd" d="M6.33205 4.94541C6.6384 5.40493 6.51423 6.0258 6.0547 6.33216C5.32277 6.82011 4.82988 7.19876 4.43956 7.6213C4.05994 8.03227 3.74489 8.52077 3.43064 9.25878C2.81883 10.6956 2.70506 12.2958 3.10745 13.8048C3.50984 15.3137 4.40527 16.6448 5.6513 17.5862C6.89733 18.5277 8.42239 19.0254 9.98388 19.0002L9.99999 19.0001H19.5C20.0523 19.0001 20.5 19.4478 20.5 20.0001C20.5 20.5524 20.0523 21.0001 19.5 21.0001H10.0078C8.00308 21.0306 6.04548 20.3907 4.44565 19.182C2.84361 17.9716 1.69234 16.2602 1.17498 14.3201C0.657625 12.38 0.803892 10.3226 1.59052 8.47525C1.97549 7.57113 2.40516 6.87618 2.97043 6.26422C3.52502 5.66385 4.17723 5.18011 4.9453 4.66806C5.40483 4.3617 6.0257 4.48588 6.33205 4.94541Z" fill="#0048DB"/>
<path fill-rule="evenodd" clip-rule="evenodd" d="M8.5 4C8.5 3.44772 8.94772 3 9.5 3C10.9552 3 12.5199 3.10584 13.9238 3.97943C15.3494 4.86652 16.4386 6.43091 17.2378 8.96315C17.2414 8.97481 17.2505 8.99177 17.2728 9.00922C17.296 9.02743 17.3271 9.04059 17.3606 9.0439C18.7875 9.18463 20.7059 9.69885 22.0913 10.979C22.7993 11.6333 23.3646 12.4862 23.634 13.5652C23.9021 14.6388 23.8619 15.8735 23.4615 17.2747C23.3098 17.8058 22.7563 18.1132 22.2253 17.9615C21.6942 17.8098 21.3868 17.2563 21.5385 16.7253C21.8633 15.5885 21.8601 14.7166 21.6936 14.0497C21.5284 13.3882 21.1874 12.8669 20.7339 12.4479C19.7963 11.5815 18.3707 11.1532 17.1643 11.0342C16.3444 10.9534 15.5947 10.4023 15.3305 9.56508C14.6118 7.28775 13.7391 6.22008 12.8672 5.67751C11.9735 5.12143 10.9052 5 9.5 5C8.94772 5 8.5 4.55228 8.5 4Z" fill="#0048DB"/>
<path fill-rule="evenodd" clip-rule="evenodd" d="M0.292893 0.292893C0.683417 -0.0976311 1.31658 -0.0976311 1.70711 0.292893L23.7071 22.2929C24.0976 22.6834 24.0976 23.3166 23.7071 23.7071C23.3166 24.0976 22.6834 24.0976 22.2929 23.7071L0.292893 1.70711C-0.0976311 1.31658 -0.0976311 0.683417 0.292893 0.292893Z" fill="#0048DB"/>
</g>
<defs>
<clipPath id="clip0_635_2480">
<rect width="24" height="24" fill="white"/>
</clipPath>
</defs>
</svg>
