<svg width="20" height="20" viewBox="0 0 20 20" fill="none" xmlns="http://www.w3.org/2000/svg">
<g clip-path="url(#clip0_18137_14984)">
<path d="M9.39387 0.256278C9.7286 -0.0854261 10.2715 -0.0854261 10.6062 0.256278L15.7491 5.50621C16.0836 5.84793 16.0837 6.40222 15.7491 6.74384C15.4144 7.08547 14.8714 7.08531 14.5367 6.74384L9.99956 2.11221L5.46343 6.74384C5.12877 7.08547 4.5858 7.08531 4.25105 6.74384C3.91632 6.40214 3.91632 5.84791 4.25105 5.50621L9.39387 0.256278Z" fill="#0048DB"/>
<path d="M14.5367 13.2563C14.8714 12.9146 15.4143 12.9146 15.7491 13.2563C16.0836 13.598 16.0837 14.1523 15.7491 14.4939L10.6062 19.7438C10.2716 20.0855 9.72862 20.0853 9.39387 19.7438L4.25105 14.4939C3.91632 14.1522 3.91632 13.598 4.25105 13.2563C4.58578 12.9146 5.1287 12.9146 5.46343 13.2563L9.99956 17.8869L14.5367 13.2563Z" fill="#0048DB"/>
</g>
<defs>
<clipPath id="clip0_18137_14984">
<rect width="20" height="20" fill="white"/>
</clipPath>
</defs>
</svg>
