<svg width="20" height="20" viewBox="0 0 20 20" fill="none" xmlns="http://www.w3.org/2000/svg">
<g clip-path="url(#clip0_18137_14983)">
<path d="M9.39387 13.2563C9.7286 12.9146 10.2715 12.9146 10.6062 13.2563L15.7491 18.5062C16.0836 18.8479 16.0837 19.4022 15.7491 19.7438C15.4144 20.0855 14.8714 20.0853 14.5367 19.7438L9.99956 15.1122L5.46343 19.7438C5.12877 20.0855 4.5858 20.0853 4.25105 19.7438C3.91632 19.4021 3.91632 18.8479 4.25105 18.5062L9.39387 13.2563Z" fill="#0048DB"/>
<path d="M14.5367 0.256278C14.8714 -0.0854261 15.4143 -0.0854261 15.7491 0.256278C16.0836 0.598002 16.0837 1.15228 15.7491 1.49391L10.6062 6.74384C10.2716 7.08546 9.72862 7.08531 9.39387 6.74384L4.25105 1.49391C3.91632 1.1522 3.91632 0.597982 4.25105 0.256278C4.58578 -0.0854261 5.1287 -0.0854261 5.46343 0.256278L9.99956 4.88688L14.5367 0.256278Z" fill="#0048DB"/>
</g>
<defs>
<clipPath id="clip0_18137_14983">
<rect width="20" height="20" fill="white"/>
</clipPath>
</defs>
</svg>
