<svg width="24" height="24" viewBox="0 0 24 24" fill="none" xmlns="http://www.w3.org/2000/svg">
<g clip-path="url(#clip0_640_2527)">
<ellipse cx="13.3331" cy="18.6539" rx="2.23152" ry="2.23151" fill="#0048DB"/>
<ellipse cx="11.5479" cy="5.26469" rx="1.33891" ry="1.33891" fill="#0048DB"/>
<circle cx="15.1187" cy="13.2984" r="1.33891" fill="#0048DB"/>
<ellipse cx="7.085" cy="16.8687" rx="1.33891" ry="1.33891" fill="#0048DB"/>
<circle cx="8.87013" cy="14.1914" r="0.446303" fill="#0048DB"/>
<circle cx="10.209" cy="11.0669" r="0.892606" fill="#0048DB"/>
<ellipse cx="5.74615" cy="9.28228" rx="1.78521" ry="1.78521" fill="#0048DB"/>
<path d="M23.7638 13.4581C23.5979 13.2336 23.3489 13.0871 23.0755 13.053C19.4779 12.6088 16.7687 9.56762 16.7687 5.97C16.7687 4.76428 17.0811 3.56833 17.6718 2.51394C17.8085 2.27475 17.8329 1.98675 17.7499 1.72315C17.6669 1.45955 17.4717 1.24477 17.2227 1.12761C15.6069 0.380752 13.8838 0 12.0972 0C5.44867 0 0.0400391 5.3647 0.0400391 11.9595C0.0400391 18.5543 5.44867 23.9191 12.1021 23.9191C17.8719 23.9191 22.851 19.8431 23.9444 14.2294C23.9933 13.9609 23.9298 13.6827 23.7638 13.4581ZM12.0972 21.9274C6.55676 21.9274 2.04631 17.456 2.04631 11.9595C2.04631 6.46303 6.55676 1.99163 12.0972 1.99163C13.2443 1.99163 14.3622 2.182 15.4263 2.55299C14.987 3.63667 14.7576 4.79845 14.7576 5.97C14.7576 10.1924 17.6816 13.8194 21.7234 14.8249C20.4689 18.9937 16.5686 21.9274 12.0972 21.9274Z" fill="#0048DB"/>
</g>
<defs>
<clipPath id="clip0_640_2527">
<rect width="24" height="24" fill="white"/>
</clipPath>
</defs>
</svg>
