<svg width="24" height="24" viewBox="0 0 24 24" fill="none" xmlns="http://www.w3.org/2000/svg">
<path fill-rule="evenodd" clip-rule="evenodd" d="M11.9994 1.68994C12.2648 1.68982 12.5193 1.79519 12.707 1.98283L18.3668 7.6426C18.3667 7.64253 18.3668 7.64268 18.3668 7.6426C19.6259 8.90101 20.4838 10.5048 20.8315 12.2507C21.1793 13.9967 21.0014 15.8066 20.3204 17.4514C19.6394 19.0963 18.4858 20.5023 17.0056 21.4915C15.5255 22.4807 13.7852 23.0086 12.0049 23.0086C10.2246 23.0086 8.48431 22.4807 7.00414 21.4915C5.52397 20.5023 4.37042 19.0963 3.68941 17.4514C3.00839 15.8066 2.83051 13.9967 3.17825 12.2507C3.52594 10.505 4.38348 8.90155 5.64241 7.6432C5.64221 7.6434 5.64261 7.643 5.64241 7.6432L11.2922 1.98346C11.4796 1.79565 11.7341 1.69006 11.9994 1.68994ZM12.0005 4.10478L7.05676 9.05728C6.07733 10.0361 5.41019 11.2833 5.13973 12.6413C4.86926 13.9993 5.00761 15.407 5.53729 16.6864C6.06697 17.9657 6.96417 19.0592 8.11542 19.8286C9.26666 20.598 10.6202 21.0086 12.0049 21.0086C13.3896 21.0086 14.7431 20.598 15.8944 19.8286C17.0456 19.0592 17.9428 17.9657 18.4725 16.6864C19.0022 15.407 19.1405 13.9993 18.87 12.6413C18.5996 11.2833 17.9324 10.0361 16.953 9.05728L12.0005 4.10478Z" fill="#0048DB"/>
</svg>
