<svg width="24" height="25" viewBox="0 0 24 25" fill="none" xmlns="http://www.w3.org/2000/svg">
<path d="M7.53541 8.62646C8.40603 7.09039 10.5782 6.98068 11.5989 8.42139L17.5295 16.7935C18.551 18.2366 17.722 20.2516 15.9807 20.5591L4.12135 22.6519C2.11411 23.0058 0.600963 20.8637 1.60572 19.0903L7.53541 8.62646ZM9.96607 9.57764C9.79237 9.33303 9.42406 9.35118 9.27564 9.61182L3.34498 20.0767C3.17426 20.3784 3.43221 20.7431 3.77369 20.6831L15.6331 18.5913C15.9293 18.539 16.0702 18.1954 15.8967 17.9497L9.96607 9.57764ZM20.6467 10.6987C21.1933 10.6192 21.701 10.9979 21.7805 11.5444C21.8598 12.0907 21.4811 12.5977 20.9348 12.6772L18.1438 13.0835C17.5973 13.163 17.0895 12.7843 17.01 12.2378C16.9307 11.6914 17.3093 11.1835 17.8557 11.104L20.6467 10.6987ZM16.7805 4.68701C17.2979 4.68731 17.7233 5.08154 17.7747 5.58545L17.7805 5.68799V6.29834C17.7803 7.38596 17.4399 8.44671 16.8088 9.33252L16.4797 9.79443L16.4163 9.87451C16.0819 10.2552 15.5068 10.3282 15.0852 10.0278C14.6358 9.70728 14.5315 9.08294 14.8518 8.6333L15.1799 8.17139C15.5697 7.62423 15.7794 6.96916 15.7795 6.29736V5.68799L15.7854 5.58545C15.8368 5.08131 16.2628 4.68697 16.7805 4.68701ZM21.3128 5.68799C22.0373 5.68802 22.6243 6.2759 22.6243 7.00049C22.624 7.72485 22.0372 8.31198 21.3128 8.31201C20.5883 8.31201 20.0005 7.72487 20.0003 7.00049C20.0003 6.27588 20.5881 5.68799 21.3128 5.68799Z" fill="#0048DB"/>
</svg>
