<svg width="24" height="24" viewBox="0 0 24 24" fill="none" xmlns="http://www.w3.org/2000/svg">
<path fill-rule="evenodd" clip-rule="evenodd" d="M12 3C7.02944 3 3 7.02944 3 12C3 16.9706 7.02944 21 12 21C16.9706 21 21 16.9706 21 12C21 7.02944 16.9706 3 12 3ZM1 12C1 5.92487 5.92487 1 12 1C18.0751 1 23 5.92487 23 12C23 18.0751 18.0751 23 12 23C5.92487 23 1 18.0751 1 12Z" fill="#0048DB"/>
<path fill-rule="evenodd" clip-rule="evenodd" d="M8 9C8 8.44772 8.44772 8 9 8H9.01C9.56228 8 10.01 8.44772 10.01 9C10.01 9.55228 9.56228 10 9.01 10H9C8.44772 10 8 9.55228 8 9Z" fill="#0048DB"/>
<path fill-rule="evenodd" clip-rule="evenodd" d="M14 9C14 8.44772 14.4477 8 15 8H15.01C15.5623 8 16.01 8.44772 16.01 9C16.01 9.55228 15.5623 10 15.01 10H15C14.4477 10 14 9.55228 14 9Z" fill="#0048DB"/>
<path fill-rule="evenodd" clip-rule="evenodd" d="M11.2477 15.1703C10.0749 15.3912 9.16219 16.1172 8.80006 16.6C8.46869 17.0419 7.84189 17.1314 7.40006 16.8C6.95823 16.4687 6.86869 15.8419 7.20006 15.4C7.83792 14.5495 9.17527 13.5255 10.8774 13.2048C12.6556 12.8698 14.7353 13.3211 16.7072 15.2929C17.0977 15.6834 17.0977 16.3166 16.7072 16.7071C16.3167 17.0977 15.6835 17.0977 15.293 16.7071C13.7648 15.1791 12.3445 14.9636 11.2477 15.1703Z" fill="#0048DB"/>
</svg>
