<svg width="24" height="24" viewBox="0 0 24 24" fill="none" xmlns="http://www.w3.org/2000/svg">
<g clip-path="url(#clip0_434_2494)">
<path fill-rule="evenodd" clip-rule="evenodd" d="M4.55678 2.48185C4.55557 2.47814 4.55439 2.4744 4.55326 2.47066L4.55678 2.48185ZM5.10763 4.17305L6.99932 9.97995C7.13343 10.3916 7.5172 10.6702 7.95014 10.6702H16.0501C16.4834 10.6702 16.8673 10.3912 17.0012 9.97921L18.8869 4.1753L20.7791 9.9992L22.0034 13.6241L12.0001 20.894L2.03572 13.6523L5.10763 4.17305ZM19.2709 2.74187L19.2746 2.73855C19.2734 2.73967 19.2721 2.74077 19.2709 2.74187ZM4.14755 1.2602C4.41083 1.02054 4.75407 0.887695 5.11014 0.887695C5.46705 0.887695 5.81105 1.02116 6.07456 1.26186C6.08151 1.2682 6.08837 1.27464 6.09513 1.28118C6.26571 1.44605 6.39221 1.65099 6.46317 1.87722L8.6761 8.67021H15.3236L17.5391 1.8512C17.5447 1.8338 17.5509 1.81656 17.5575 1.7995C17.6372 1.59337 17.7639 1.4087 17.9275 1.2602C18.1908 1.02054 18.5341 0.887695 18.8901 0.887695C19.247 0.887695 19.591 1.02115 19.8546 1.26186C19.8615 1.2682 19.8684 1.27464 19.8751 1.28118C20.0458 1.44617 20.1724 1.65128 20.2433 1.87771L22.6794 9.3756L23.9476 13.1302C23.9496 13.1361 23.9515 13.1421 23.9534 13.148C23.9558 13.1555 23.9581 13.1631 23.9603 13.1706C24.0709 13.5506 24.0561 13.9562 23.918 14.3271C23.7836 14.688 23.5395 14.9973 23.2204 15.2119L12.588 22.9391C12.2375 23.1939 11.7628 23.1939 11.4122 22.9391L0.762244 15.1991L0.757682 15.1958C0.444936 14.9658 0.212952 14.6428 0.0949196 14.2729C-0.0227092 13.9044 -0.0211584 13.5081 0.099294 13.1405L3.75908 1.85121C3.76474 1.8338 3.77087 1.81656 3.77747 1.7995C3.85718 1.59337 3.98391 1.40871 4.14755 1.2602ZM17.9275 1.2602C17.9282 1.25964 17.9288 1.25909 17.9294 1.25854L18.6001 2.00021L17.9257 1.26186C17.9263 1.2613 17.9269 1.26075 17.9275 1.2602Z" fill="#0048DB"/>
</g>
<defs>
<clipPath id="clip0_434_2494">
<rect width="24" height="24" fill="white"/>
</clipPath>
</defs>
</svg>
