<svg width="24" height="24" viewBox="0 0 24 24" fill="none" xmlns="http://www.w3.org/2000/svg">
<path d="M16.7324 3.28223C17.5777 3.33499 18.3158 3.57532 18.959 4.03223C19.5822 4.47507 20.0481 5.074 20.4355 5.73828L20.5967 6.02734L20.6436 6.125L23.3701 12.6699L23.4082 12.7754C23.4131 12.7917 23.4158 12.8088 23.4199 12.8252C23.7899 13.561 23.9999 14.3917 24 15.2715C24 18.2839 21.5574 20.7256 18.5449 20.7256C15.5327 20.7253 13.0909 18.2837 13.0908 15.2715C13.0907 14.9823 12.9759 14.7045 12.7715 14.5C12.5669 14.2956 12.2892 14.1807 12 14.1807C11.7108 14.1807 11.4331 14.2955 11.2285 14.5C11.024 14.7045 10.9093 14.9823 10.9092 15.2715L10.9023 15.5518C10.7564 18.4339 8.37254 20.7256 5.4541 20.7256C2.44187 20.7253 4.78016e-05 18.2838 0 15.2715C5.65007e-05 14.3917 0.210074 13.561 0.580078 12.8252C0.593135 12.7733 0.607721 12.7208 0.628906 12.6699L3.35645 6.125L3.40332 6.02734L3.55859 5.74707C3.93065 5.09824 4.37174 4.49 4.98828 4.04004C5.72327 3.50374 6.59373 3.2715 7.63672 3.27148C8.23889 3.27172 8.72735 3.76012 8.72754 4.3623C8.72754 4.96465 8.23901 5.45289 7.63672 5.45312C6.93449 5.45314 6.54845 5.60279 6.27441 5.80273C5.97601 6.02059 5.6936 6.38172 5.34473 7.02344L4.11133 9.98242C4.54078 9.8737 4.99086 9.81644 5.4541 9.81641C7.47523 9.81641 9.2383 10.9175 10.1807 12.5508C10.7151 12.1935 11.3477 11.999 12 11.999C12.6521 11.999 13.2841 12.1937 13.8184 12.5508C14.7606 10.9174 16.5238 9.8166 18.5449 9.81641C19.0077 9.81641 19.4576 9.8749 19.8867 9.9834L18.6514 7.01758C18.3164 6.40461 18.0117 6.03536 17.6953 5.81055C17.4318 5.62336 17.0957 5.49034 16.5908 5.45996L16.3633 5.45312L16.252 5.44727C15.702 5.3913 15.2725 4.92707 15.2725 4.3623C15.2727 3.76009 15.7611 3.27168 16.3633 3.27148L16.7324 3.28223ZM5.4541 11.999C3.64695 11.9993 2.18183 13.4643 2.18164 15.2715C2.18169 17.0788 3.64686 18.5437 5.4541 18.5439C7.26155 18.5439 8.72749 17.0789 8.72754 15.2715C8.72735 13.4642 7.26146 11.999 5.4541 11.999ZM18.5449 11.999C16.7944 11.9993 15.3654 13.3739 15.2773 15.1025L15.2725 15.2715L15.2773 15.4395C15.3648 17.1686 16.7941 18.5437 18.5449 18.5439C20.3524 18.5439 21.8183 17.0789 21.8184 15.2715C21.8182 13.4642 20.3523 11.999 18.5449 11.999Z" fill="#0048DB"/>
</svg>
