<svg width="24" height="24" viewBox="0 0 24 24" fill="none" xmlns="http://www.w3.org/2000/svg">
<g id="ID">
<path id="Vector (Stroke)" fill-rule="evenodd" clip-rule="evenodd" d="M3 6C2.44772 6 2 6.44772 2 7V17C2 17.5523 2.44772 18 3 18H21C21.5523 18 22 17.5523 22 17V7C22 6.44772 21.5523 6 21 6H3ZM0 7C0 5.34315 1.34315 4 3 4H21C22.6569 4 24 5.34315 24 7V17C24 18.6569 22.6569 20 21 20H3C1.34315 20 0 18.6569 0 17V7Z" fill="#0048DB"/>
<path id="Vector 77" d="M4 16V16C4 14.8954 4.89543 14 6 14H9C10.1046 14 11 14.8954 11 16V16" stroke="#0048DB" stroke-width="1.5" stroke-linecap="round"/>
<circle id="Ellipse 307" cx="7.5" cy="9.5" r="1.75" stroke="#0048DB" stroke-width="1.5"/>
<path id="Vector 78" d="M14 9H20" stroke="#0048DB" stroke-width="1.5" stroke-linecap="round"/>
<path id="Vector 79" d="M14 12H20" stroke="#0048DB" stroke-width="1.5" stroke-linecap="round"/>
<path id="Vector 80" d="M14 15H18.5" stroke="#0048DB" stroke-width="1.5" stroke-linecap="round"/>
</g>
</svg>
