<svg width="24" height="24" viewBox="0 0 20 20" fill="none" xmlns="http://www.w3.org/2000/svg">
<g clip-path="url(#clip0_8889_2927)">
<path d="M11.415 17.8785C11.8612 17.8788 12.2216 18.2438 12.2217 18.6862C12.2217 19.1286 11.8574 19.4935 11.415 19.4938H8.5459C8.10334 19.4938 7.73828 19.1287 7.73828 18.6862C7.73833 18.2436 8.10337 17.8785 8.5459 17.8785H11.415Z" fill="#0048DB"/>
<path fill-rule="evenodd" clip-rule="evenodd" d="M9.63965 0.509404C13.4751 0.307643 16.666 3.37879 16.666 7.17542C16.666 8.87182 16.0173 10.4867 14.8838 11.7018C13.0371 13.6999 13.3073 15.9386 13.3076 15.941C13.2688 16.3835 12.9044 16.7486 12.4619 16.7487H7.53516C7.09272 16.7485 6.72757 16.3835 6.72754 15.941C6.72754 15.941 6.965 13.6426 5.11328 11.6588C3.9798 10.405 3.33507 8.79044 3.33496 7.0553C3.41648 3.58083 6.16518 0.711273 9.63965 0.509404ZM9.75977 2.12854C7.09281 2.29162 5.03103 4.4694 4.99219 7.13636C4.99219 8.42909 5.43522 9.67951 6.32422 10.65C7.4965 11.9 8.22219 13.5149 8.30371 15.1725H11.6973C11.7788 13.5148 12.5046 11.8998 13.7158 10.6071C14.6047 9.67929 15.0898 8.42925 15.0898 7.17542C15.0898 4.31044 12.6675 1.9655 9.75977 2.12854Z" fill="#0048DB"/>
</g>
<defs>
<clipPath id="clip0_8889_2927">
<rect width="20" height="20" fill="white"/>
</clipPath>
</defs>
</svg>
