<svg width="24" height="24" viewBox="0 0 24 24" fill="none" xmlns="http://www.w3.org/2000/svg">
<g id="Status=Down, Negative=False">
<path id="spinner" d="M22.5 12C23.3284 12 24.0097 11.3258 23.9064 10.5038C23.6155 8.18897 22.6541 5.99716 21.1249 4.20662C19.2692 2.03396 16.6993 0.59471 13.8772 0.14774C11.0552 -0.299231 8.16621 0.275415 5.73002 1.76832C3.29382 3.26122 1.47026 5.5744 0.587322 8.2918C-0.295613 11.0092 -0.179972 13.9525 0.913445 16.5922C2.00686 19.2319 4.0063 21.3949 6.55211 22.6921C9.09793 23.9892 12.0231 24.3354 14.8013 23.6684C17.091 23.1187 19.1571 21.9106 20.753 20.2088C21.3197 19.6046 21.1649 18.6587 20.4947 18.1717C19.8245 17.6848 18.894 17.8446 18.3026 18.4247C17.1453 19.56 15.6954 20.3685 14.101 20.7513C12.0173 21.2516 9.82345 20.9919 7.91408 20.0191C6.00472 19.0462 4.50515 17.424 3.68508 15.4442C2.86502 13.4643 2.77829 11.2569 3.44049 9.21885C4.10269 7.1808 5.47037 5.44592 7.29751 4.32624C9.12466 3.20656 11.2914 2.77558 13.4079 3.11081C15.5245 3.44603 17.4519 4.52547 18.8437 6.15497C19.9086 7.40183 20.6063 8.90814 20.8753 10.5069C21.0127 11.3238 21.6716 12 22.5 12Z" fill="url(#paint0_angular_6716_10870)"/>
</g>
<defs>
<radialGradient id="paint0_angular_6716_10870" cx="0" cy="0" r="1" gradientUnits="userSpaceOnUse" gradientTransform="translate(8.57143 7.71429) rotate(16.5571) scale(16.5431 10.2384)">
<stop offset="0.00516703" stop-color="#0048DB" stop-opacity="0"/>
<stop offset="0.110955" stop-color="#0048DB"/>
</radialGradient>
</defs>
</svg>
