<svg xmlns="http://www.w3.org/2000/svg" width="24" height="24" fill="none" viewBox="0 0 24 24"><path fill="#0048DB" fill-rule="evenodd" d="M12 1a1 1 0 0 1 1 1v4a1 1 0 1 1-2 0V2a1 1 0 0 1 1-1ZM12 17a1 1 0 0 1 1 1v4a1 1 0 1 1-2 0v-4a1 1 0 0 1 1-1ZM4.223 4.223a1 1 0 0 1 1.414 0l2.83 2.83a1 1 0 1 1-1.414 1.414l-2.83-2.83a1 1 0 0 1 0-1.414ZM15.533 15.533a1 1 0 0 1 1.414 0l2.83 2.83a1 1 0 1 1-1.414 1.414l-2.83-2.83a1 1 0 0 1 0-1.414ZM1 12a1 1 0 0 1 1-1h4a1 1 0 1 1 0 2H2a1 1 0 0 1-1-1ZM17 12a1 1 0 0 1 1-1h4a1 1 0 1 1 0 2h-4a1 1 0 0 1-1-1ZM8.467 15.533a1 1 0 0 1 0 1.414l-2.83 2.83a1 1 0 1 1-1.414-1.414l2.83-2.83a1 1 0 0 1 1.414 0ZM19.777 4.223a1 1 0 0 1 0 1.414l-2.83 2.83a1 1 0 1 1-1.414-1.414l2.83-2.83a1 1 0 0 1 1.414 0Z" clip-rule="evenodd"/></svg>
