<svg width="24" height="24" viewBox="0 0 24 24" fill="none" xmlns="http://www.w3.org/2000/svg">
<path d="M14.0515 13.4129C13.9793 13.4357 13.9028 13.4486 13.8233 13.4503L11.779 13.4942C11.3481 13.5035 10.9845 13.1763 10.9488 12.7472L10.7865 10.8019C10.749 10.3533 11.0828 9.95875 11.5316 9.92133C11.9807 9.88369 12.3751 10.2169 12.4125 10.6657L12.5112 11.8474L13.789 11.8199C14.2394 11.8103 14.6123 12.1674 14.6218 12.6176C14.6296 12.9885 14.3885 13.3068 14.0515 13.4129Z" fill="#0048DB"/>
<path d="M21.9003 6.01257C21.8282 6.0287 21.7528 6.03578 21.6754 6.03281L19.055 5.92849C18.8248 5.9193 18.6077 5.81914 18.4515 5.64998C18.2953 5.48087 18.2128 5.2566 18.2219 5.02661L18.3271 2.40804C18.3464 1.92888 18.7511 1.55652 19.2299 1.57519C19.7092 1.59431 20.0821 1.99803 20.0629 2.47701L19.9926 4.2284L21.7451 4.29808C22.2244 4.31719 22.5974 4.721 22.5781 5.19997C22.5621 5.60167 22.2752 5.92873 21.9003 6.01257L21.9003 6.01257Z" fill="#0048DB"/>
<path fill-rule="evenodd" clip-rule="evenodd" d="M19.9987 5.29726L12.6661 13.0342C12.3179 13.4016 11.7377 13.4172 11.3702 13.0689C11.0028 12.7207 10.9872 12.1405 11.3355 11.773L18.668 4.03613C19.0163 3.66867 19.5965 3.6531 19.9639 4.00135C20.3314 4.34961 20.3469 4.9298 19.9987 5.29726Z" fill="#0048DB"/>
<path fill-rule="evenodd" clip-rule="evenodd" d="M22.5722 8.96153C22.419 8.42861 21.8323 8.17357 21.3156 8.37467C20.7988 8.57578 20.5489 9.15692 20.6912 9.69284C21.1294 11.3435 21.0901 13.0923 20.567 14.7326C19.9417 16.693 18.6629 18.3797 16.944 19.5111C15.2252 20.6425 13.1703 21.1501 11.1223 20.9492C9.0744 20.7484 7.15731 19.8512 5.69104 18.4074C4.22478 16.9636 3.29807 15.0606 3.06559 13.016C2.8331 10.9714 3.30892 8.90891 4.4136 7.1728C5.51829 5.43668 7.18502 4.13198 9.13559 3.47646C10.7675 2.92801 12.5156 2.86175 14.1728 3.27441C14.7108 3.4084 15.2881 3.14949 15.4811 2.62971C15.6742 2.10992 15.4102 1.52722 14.8749 1.3823C12.7837 0.816054 10.5637 0.87817 8.49592 1.57307C6.10978 2.37498 4.07086 3.97103 2.71949 6.09483C1.36811 8.21863 0.786048 10.7417 1.07045 13.2429C1.35484 15.744 2.4885 18.072 4.28219 19.8382C6.07588 21.6044 8.42107 22.7019 10.9263 22.9476C13.4316 23.1934 15.9454 22.5724 18.048 21.1884C20.1507 19.8043 21.7151 17.741 22.48 15.3427C23.1429 13.2645 23.1707 11.0437 22.5722 8.96153Z" fill="#0048DB"/>
<path fill-rule="evenodd" clip-rule="evenodd" d="M16.6848 12.2085C16.6558 12.8597 16.4911 13.5017 16.1968 14.092C15.7439 15.0002 15.0087 15.7369 14.1015 16.1917C13.1943 16.6464 12.164 16.7946 11.1654 16.6139C10.1668 16.4332 9.2538 15.9335 8.56343 15.1897C7.87305 14.4459 7.4426 13.4982 7.3367 12.489C7.23081 11.4797 7.45518 10.4633 7.97613 9.59243C8.49709 8.72154 9.2865 8.04316 10.2258 7.65915C10.8364 7.40955 11.4889 7.29307 12.1404 7.31255C12.2052 7.31448 12.2699 7.31776 12.3345 7.32238C12.4135 7.32802 12.4924 7.32535 12.5696 7.31487C12.9577 7.26216 13.3034 7.01198 13.404 6.62703C13.5245 6.16547 13.248 5.68732 12.7744 5.62977C12.669 5.61696 12.5634 5.60678 12.4577 5.59923C12.3283 5.58998 12.1987 5.58467 12.0692 5.58328C11.2185 5.57415 10.3692 5.73421 9.57213 6.06007C8.28672 6.58556 7.20647 7.51386 6.49359 8.70559C5.78071 9.89731 5.47368 11.2881 5.61859 12.6692C5.7635 14.0503 6.35254 15.3471 7.29725 16.3649C8.24197 17.3827 9.49137 18.0666 10.8579 18.3138C12.2243 18.5611 13.6342 18.3583 14.8756 17.7361C16.1171 17.1138 17.1231 16.1056 17.7428 14.8628C18.127 14.0922 18.3498 13.2571 18.404 12.4082C18.4122 12.2789 18.4166 12.1493 18.417 12.0196C18.4173 11.9136 18.415 11.8075 18.4101 11.7014C18.3879 11.2249 17.9317 10.9135 17.4624 10.9995C17.071 11.0711 16.7958 11.3973 16.7144 11.7803C16.6982 11.8565 16.6897 11.935 16.6894 12.0142C16.6892 12.079 16.6877 12.1438 16.6848 12.2085Z" fill="#0048DB"/>
</svg>
