<svg width="20" height="20" viewBox="0 0 20 20" fill="none" xmlns="http://www.w3.org/2000/svg">
<path d="M14.9649 10.5601C15.3868 10.5601 15.7287 10.9054 15.7288 11.3311C15.7287 11.7568 15.3868 12.1021 14.9649 12.1021H5.03439C4.61256 12.1021 4.27059 11.7568 4.2705 11.3311C4.27059 10.9054 4.61256 10.5601 5.03439 10.5601H14.9649Z" fill="#0048DB"/>
<path fill-rule="evenodd" clip-rule="evenodd" d="M2.44135 3.87477C2.87142 3.65775 3.37792 3.65776 3.80799 3.87477L4.44581 4.19703C5.08614 4.52022 5.41825 5.24882 5.24475 5.94986L4.86654 7.47606H17.6385L17.7944 7.48435C18.5649 7.56319 19.1662 8.21966 19.1663 9.01808V13.6441C19.1662 15.7731 17.4562 17.4991 15.3469 17.4991H4.65244C2.54308 17.4991 0.833094 15.7731 0.833008 13.6441V9.01808C0.833059 8.50832 1.0789 8.05718 1.45665 7.77648L1.00458 5.94986C0.831085 5.24882 1.1632 4.52022 1.80353 4.19703L2.44135 3.87477ZM2.36078 13.6441C2.36087 14.9215 3.38685 15.9571 4.65244 15.9571H15.3469C16.6125 15.9571 17.6384 14.9215 17.6385 13.6441V9.01808H2.36078V13.6441ZM2.48685 5.57641L2.95757 7.47606H3.29177L3.76249 5.57641L3.12467 5.25415L2.48685 5.57641Z" fill="#0048DB"/>
<path fill-rule="evenodd" clip-rule="evenodd" d="M17.2655 2.55337C17.7662 2.55671 18.2482 2.75633 18.6046 3.10904C18.961 3.46174 19.1629 3.93876 19.1663 4.4342C19.1696 4.92949 18.974 5.40319 18.6225 5.75109C18.2708 6.09907 17.7916 6.29277 17.2909 6.28944L9.16564 6.23523C9.05612 6.23445 8.94812 6.20428 8.85382 6.14788L6.70763 4.86413C6.52481 4.7548 6.41152 4.55924 6.40998 4.34912C6.40855 4.13897 6.51887 3.94485 6.70017 3.83788L8.82995 2.58198C8.92348 2.52688 9.03079 2.49846 9.14028 2.49916L17.2655 2.55337ZM8.19064 4.36042L9.32528 5.03956L17.2834 5.09227C17.4632 5.09338 17.6354 5.0237 17.7616 4.89876C17.8877 4.77381 17.9575 4.60373 17.9563 4.42592C17.9551 4.24798 17.8829 4.07676 17.7549 3.95007C17.6269 3.82336 17.4536 3.75098 17.2737 3.74978L9.31633 3.69708L8.19064 4.36042Z" fill="#0048DB"/>
</svg>
