<svg width="24" height="24" viewBox="0 0 24 24" fill="none" xmlns="http://www.w3.org/2000/svg">
<g clip-path="url(#clip0_16638_105970)">
<path d="M8.77423 16C8.57602 16 8.37799 15.9243 8.2268 15.7733C7.9244 15.4709 7.9244 14.9807 8.2268 14.6783L14.6783 8.22674C14.9808 7.92442 15.4708 7.92442 15.7732 8.22674C16.0756 8.52906 16.0756 9.01928 15.7732 9.3216L9.32165 15.7733C9.17044 15.9243 8.9724 16 8.77423 16Z" fill="#0048DB"/>
<path fill-rule="evenodd" clip-rule="evenodd" d="M9 8.14298C8.52661 8.14298 8.14286 8.52674 8.14286 9.00012C8.14286 9.47351 8.52661 9.85726 9 9.85726C9.47339 9.85726 9.85714 9.47351 9.85714 9.00012C9.85714 8.52674 9.47339 8.14298 9 8.14298ZM7 9.00012C7 7.89555 7.89543 7.00012 9 7.00012C10.1046 7.00012 11 7.89555 11 9.00012C11 10.1047 10.1046 11.0001 9 11.0001C7.89543 11.0001 7 10.1047 7 9.00012Z" fill="#0048DB"/>
<path fill-rule="evenodd" clip-rule="evenodd" d="M15 14.1431C14.5266 14.1431 14.1429 14.5269 14.1429 15.0002C14.1429 15.4736 14.5266 15.8574 15 15.8574C15.4734 15.8574 15.8571 15.4736 15.8571 15.0002C15.8571 14.5269 15.4734 14.1431 15 14.1431ZM13 15.0002C13 13.8957 13.8954 13.0002 15 13.0002C16.1046 13.0002 17 13.8957 17 15.0002C17 16.1048 16.1046 17.0002 15 17.0002C13.8954 17.0002 13 16.1048 13 15.0002Z" fill="#0048DB"/>
<path d="M11.4112 0.429366C11.7621 0.17361 12.2379 0.17361 12.5889 0.429366L14.8877 2.10612C15.0165 2.20006 15.1653 2.2612 15.3213 2.28581L15.4786 2.29851L18.3243 2.29265C18.7588 2.29193 19.1439 2.57247 19.2774 2.98601L20.1514 5.69304C20.2167 5.89516 20.3446 6.07141 20.5166 6.19597L22.8213 7.86394C23.1734 8.11874 23.3207 8.57193 23.1856 8.98503L22.3018 11.6891C22.2358 11.891 22.2358 12.1084 22.3018 12.3102L23.1856 15.0143C23.3207 15.4274 23.1734 15.8806 22.8213 16.1354L20.5166 17.8034C20.3446 17.9279 20.2167 18.1042 20.1514 18.3063L19.2774 21.0133C19.1439 21.4269 18.7588 21.7074 18.3243 21.7067L15.4786 21.7008C15.2662 21.7005 15.0593 21.7681 14.8877 21.8932L12.5889 23.57L12.4522 23.654C12.1684 23.798 11.8317 23.798 11.5479 23.654L11.4112 23.57L9.11234 21.8932C8.94081 21.7681 8.73383 21.7005 8.52152 21.7008L5.67582 21.7067L5.51566 21.694C5.20124 21.6437 4.92916 21.4453 4.78422 21.1618L4.72269 21.0133L3.84867 18.3063C3.79969 18.1546 3.71529 18.0175 3.60355 17.9059L3.48343 17.8034L1.17875 16.1354C0.826639 15.8806 0.679395 15.4274 0.81449 15.0143L1.69828 12.3102C1.74779 12.1587 1.76022 11.9984 1.73539 11.8425L1.69828 11.6891L0.81449 8.98503C0.679395 8.57193 0.826639 8.11874 1.17875 7.86394L3.48343 6.19597C3.61242 6.10258 3.71656 5.98011 3.78812 5.83952L3.84867 5.69304L4.72269 2.98601C4.85619 2.57247 5.24129 2.29193 5.67582 2.29265L8.52152 2.29851C8.68077 2.29873 8.83705 2.26084 8.97758 2.18913L9.11234 2.10612L11.4112 0.429366ZM10.0547 3.39909C9.60849 3.72446 9.06988 3.89917 8.51761 3.89812L6.11039 3.89323L5.37113 6.18425C5.20142 6.70997 4.86847 7.168 4.42093 7.49187L2.47074 8.903L3.21879 11.1911C3.3905 11.7162 3.3905 12.2832 3.21879 12.8083L2.47074 15.0954L4.42093 16.5075C4.81248 16.7908 5.11633 17.1766 5.29984 17.6208L5.37113 17.8151L6.11039 20.1051L8.51761 20.1012L8.72465 20.1091C9.20361 20.1463 9.66437 20.3156 10.0547 20.6003L12 22.0182L13.9453 20.6003L14.1162 20.486C14.5259 20.2343 14.9989 20.1003 15.4825 20.1012L17.8887 20.1051L18.6289 17.8151L18.7002 17.6208C18.8837 17.1766 19.1876 16.7908 19.5791 16.5075L21.5284 15.0954L20.7813 12.8083C20.6096 12.2832 20.6096 11.7162 20.7813 11.1911L21.5284 8.903L19.5791 7.49187C19.1316 7.168 18.7987 6.70997 18.6289 6.18425L17.8887 3.89323L15.4825 3.89812C14.9302 3.89917 14.3916 3.72446 13.9453 3.39909L12 1.98015L10.0547 3.39909Z" fill="#0048DB"/>
</g>
<defs>
<clipPath id="clip0_16638_105970">
<rect width="24" height="24" fill="#0048DB"/>
</clipPath>
</defs>
</svg>
