<svg width="24" height="24" viewBox="0 0 24 24" fill="none" xmlns="http://www.w3.org/2000/svg">
<path fill-rule="evenodd" clip-rule="evenodd" d="M6.92585 24C6.86508 24 6.80397 23.9942 6.74313 23.982C6.43765 23.9209 6.1831 23.7112 6.06439 23.4232L4.37632 19.3232L0.612085 17.9488C0.313202 17.8397 0.0906861 17.5856 0.022016 17.2749C-0.0467245 16.9642 0.0478634 16.64 0.272783 16.415L2.24901 14.4388C2.42382 14.2641 2.6607 14.1659 2.90782 14.1659H5.15667L8.57858 10.7438L1.92015 6.18233C1.69166 6.02573 1.54462 5.77549 1.51905 5.49965C1.49348 5.22388 1.59205 4.95093 1.7879 4.7549L4.42272 2.11989C4.66105 1.88168 5.00943 1.79049 5.33388 1.88185L14.7811 4.54079L18.3546 0.967093C19.644 -0.322262 21.7419 -0.322467 23.0314 0.967093C23.6561 1.59175 24 2.4223 24 3.30578C24 4.18912 23.6561 5.01967 23.0314 5.64432L19.4307 9.24531L21.7923 18.3551C21.8752 18.6747 21.7828 19.0142 21.5494 19.2477L18.9146 21.8827C18.7173 22.0796 18.4419 22.1778 18.1658 22.1512C17.8886 22.1243 17.6381 21.9748 17.4826 21.7436L13.2421 15.4342L9.83358 18.8431V21.0922C9.83358 21.3393 9.73549 21.5763 9.56082 21.751L7.5846 23.7272C7.40807 23.9036 7.17036 24 6.92585 24L6.92585 24ZM2.62323 16.6996L5.40097 17.7138C5.64658 17.8035 5.84325 17.9923 5.94292 18.2342L7.25518 21.4216L7.9705 20.7063V18.4571C7.9705 18.2101 8.06866 17.9732 8.24333 17.7984L12.7251 13.3162C12.9222 13.1193 13.197 13.0205 13.4739 13.0478C13.751 13.0747 14.0016 13.2242 14.1569 13.4553L18.3975 19.7648L19.8551 18.3069L17.4936 9.19705C17.4107 8.87745 17.503 8.53792 17.7365 8.30446L21.714 4.32681C22.2769 3.76382 22.2769 2.84765 21.714 2.2847C21.151 1.7216 20.2351 1.72181 19.6721 2.2847L15.7127 6.24429C15.4743 6.4825 15.1258 6.57379 14.8015 6.48222L5.35436 3.82329L3.8985 5.27911L10.5569 9.84071C10.7854 9.99731 10.9325 10.2475 10.9581 10.5234C10.9836 10.7993 10.885 11.0721 10.6892 11.2681L6.20138 15.7563C6.02658 15.9309 5.7897 16.0291 5.54264 16.0291H3.29359L2.62323 16.6996ZM19.0133 1.62585H19.0142H19.0133Z" fill="#0048DB"/>
</svg>
