<svg width="24" height="24" viewBox="0 0 24 24" fill="none" xmlns="http://www.w3.org/2000/svg">
<g clip-path="url(#clip0_434_2706)">
<path fill-rule="evenodd" clip-rule="evenodd" d="M1 3C1.55228 3 2 3.44772 2 4V9H7C7.55228 9 8 9.44772 8 10C8 10.5523 7.55228 11 7 11H1C0.447715 11 0 10.5523 0 10V4C0 3.44772 0.447715 3 1 3Z" fill="#0048DB"/>
<path fill-rule="evenodd" clip-rule="evenodd" d="M10.6054 2.10682C12.7523 1.80476 14.9392 2.20862 16.8366 3.25754C18.7341 4.30646 20.2392 5.94363 21.1253 7.92236C22.0114 9.90109 22.2304 12.1142 21.7493 14.2282C21.2682 16.3422 20.1131 18.2426 18.4581 19.6431C16.803 21.0435 14.7377 21.8682 12.5732 21.9928C10.4087 22.1173 8.26236 21.5351 6.45756 20.3338C4.65276 19.1324 3.28727 17.3771 2.56683 15.3322C2.38331 14.8113 2.65681 14.2403 3.17771 14.0568C3.69861 13.8733 4.26966 14.1468 4.45318 14.6677C5.02953 16.3035 6.12192 17.7078 7.56576 18.6689C9.0096 19.6299 10.7267 20.0957 12.4583 19.9961C14.1898 19.8964 15.8421 19.2367 17.1662 18.1163C18.4902 16.996 19.4143 15.4756 19.7992 13.7844C20.184 12.0932 20.0088 10.3227 19.3 8.73974C18.5911 7.15676 17.387 5.84703 15.869 5.00789C14.3511 4.16875 12.6015 3.84567 10.884 4.08731C9.16647 4.32896 7.57399 5.12225 6.34651 6.34765C6.33937 6.35478 6.33213 6.3618 6.32478 6.3687L1.68478 10.7287C1.2823 11.1069 0.649442 11.0872 0.27125 10.6847C-0.106942 10.2822 -0.0872528 9.64939 0.315226 9.2712L4.94449 4.92128C6.47735 3.39576 8.46357 2.40816 10.6054 2.10682Z" fill="#0048DB"/>
</g>
<defs>
<clipPath id="clip0_434_2706">
<rect width="24" height="24" fill="white"/>
</clipPath>
</defs>
</svg>
