<svg width="20" height="20" viewBox="0 0 20 20" fill="none" xmlns="http://www.w3.org/2000/svg">
<path fill-rule="evenodd" clip-rule="evenodd" d="M13.9852 11.2C14.4254 11.2 14.7823 11.5582 14.7823 12V16C14.7823 16.8837 14.0685 17.6 13.1881 17.6H6.81127C5.93082 17.6 5.21707 16.8837 5.21707 16V12C5.21707 11.5582 5.57394 11.2 6.01417 11.2H13.9852ZM6.81127 16H13.1881V12.8H6.81127V16Z" fill="#0048DB"/>
<path fill-rule="evenodd" clip-rule="evenodd" d="M9.99967 0C11.4853 0 12.7337 1.01981 13.0877 2.4H14.7823C16.103 2.4 17.1736 3.47452 17.1736 4.8V10.4H17.5721C18.4526 10.4 19.1663 11.1163 19.1663 12V16C19.1663 16.8837 18.4526 17.6 17.5721 17.6H17.1736V18.4C17.1736 19.2837 16.4598 20 15.5794 20H4.41996C3.53951 20 2.82576 19.2837 2.82576 18.4V17.6H2.42721C1.54676 17.6 0.833008 16.8837 0.833008 16V12C0.833008 11.1163 1.54676 10.4 2.42721 10.4H2.82576V4.8C2.82576 3.47452 3.89639 2.4 5.21707 2.4H6.91168C7.26563 1.01981 8.514 0 9.99967 0ZM4.41996 18.4H15.5794V8.8H13.9852V9.6C13.9852 10.0418 13.6283 10.4 13.1881 10.4C12.7479 10.4 12.391 10.0418 12.391 9.6V8.8H7.60837V9.6C7.60837 10.0418 7.2515 10.4 6.81127 10.4C6.37104 10.4 6.01417 10.0418 6.01417 9.6V8.8H4.41996V18.4ZM2.42721 16H2.82576V12H2.42721V16ZM17.1736 16H17.5721V12H17.1736V16ZM5.21707 4C4.77684 4 4.41996 4.35817 4.41996 4.8V7.2H6.01417V6.4C6.01417 5.95817 6.37104 5.6 6.81127 5.6C7.2515 5.6 7.60837 5.95817 7.60837 6.4V7.2H12.391V6.4C12.391 5.95817 12.7479 5.6 13.1881 5.6C13.6283 5.6 13.9852 5.95817 13.9852 6.4V7.2H15.5794V4.8C15.5794 4.35817 15.2225 4 14.7823 4H5.21707ZM9.99967 1.6C9.40988 1.6 8.89606 1.92214 8.62032 2.4H11.379C11.1033 1.92214 10.5895 1.6 9.99967 1.6Z" fill="#0048DB"/>
</svg>
