<svg width="24" height="24" viewBox="0 0 24 24" fill="none" xmlns="http://www.w3.org/2000/svg">
<g clip-path="url(#clip0_434_2671)">
<path fill-rule="evenodd" clip-rule="evenodd" d="M11.6503 1.06318C11.8763 0.978771 12.1253 0.978944 12.3512 1.06367L20.3512 4.06367C20.7415 4.21003 21.0001 4.58316 21.0001 5V12.0066C20.995 12.7832 20.8754 13.5548 20.6452 14.2964C20.4814 14.8239 19.9211 15.1188 19.3937 14.9551C18.8662 14.7913 18.5713 14.231 18.7351 13.7036C18.9067 13.1507 18.996 12.5755 19.0001 11.9966V5.693L11.9994 3.06772L9.18994 4.11682C8.67255 4.31002 8.0965 4.04721 7.9033 3.52982C7.7101 3.01243 7.9729 2.43639 8.49029 2.24318L11.6503 1.06318Z" fill="#0048DB"/>
<path fill-rule="evenodd" clip-rule="evenodd" d="M5.6679 4.38287C5.85949 4.90086 5.59489 5.47608 5.0769 5.66767L5 5.69611V11.9998C5 14.5533 6.71825 16.7995 8.6585 18.4972C9.60762 19.3277 10.5615 19.9839 11.28 20.433C11.5626 20.6096 11.8071 20.7531 11.9985 20.8617C13.8252 19.8327 15.4731 18.5121 16.8763 16.9512C17.2456 16.5405 17.8778 16.5069 18.2886 16.8761C18.6993 17.2453 18.7329 17.8776 18.3637 18.2883C16.6845 20.1561 14.688 21.7121 12.4667 22.8842C12.1815 23.0347 11.8412 23.0384 11.5528 22.8942L12 21.9998C11.5528 22.8942 11.5531 22.8944 11.5528 22.8942L11.5492 22.8924L11.5427 22.8891L11.5212 22.8782C11.5032 22.8689 11.4777 22.8558 11.4453 22.8388C11.3806 22.8048 11.2881 22.7554 11.1719 22.6911C10.9397 22.5625 10.6118 22.3739 10.22 22.129C9.43854 21.6406 8.39238 20.9219 7.3415 20.0023C5.28175 18.2001 3 15.4462 3 11.9998V4.99976C3 4.58127 3.2606 4.20703 3.6531 4.06186L4.3831 3.79186C4.90109 3.60027 5.47632 3.86488 5.6679 4.38287Z" fill="#0048DB"/>
<path fill-rule="evenodd" clip-rule="evenodd" d="M0.292893 0.292893C0.683417 -0.0976311 1.31658 -0.0976311 1.70711 0.292893L23.7071 22.2929C24.0976 22.6834 24.0976 23.3166 23.7071 23.7071C23.3166 24.0976 22.6834 24.0976 22.2929 23.7071L0.292893 1.70711C-0.0976311 1.31658 -0.0976311 0.683417 0.292893 0.292893Z" fill="#0048DB"/>
</g>
<defs>
<clipPath id="clip0_434_2671">
<rect width="24" height="24" fill="white"/>
</clipPath>
</defs>
</svg>
