<svg width="24" height="25" viewBox="0 0 24 25" fill="none" xmlns="http://www.w3.org/2000/svg">
<path fill-rule="evenodd" clip-rule="evenodd" d="M11.6489 1.7834C11.8753 1.6985 12.1247 1.6985 12.3511 1.7834L20.3511 4.7834C20.7414 4.92976 21 5.30288 21 5.71973V12.7197C21 16.1662 18.7183 18.92 16.6585 20.7223C15.6076 21.6418 14.5615 22.3606 13.78 22.849C13.3882 23.0938 13.0603 23.2825 12.8281 23.411C12.7119 23.4753 12.6194 23.5247 12.5547 23.5587C12.5223 23.5757 12.4968 23.5889 12.4788 23.5981L12.4573 23.6091L12.4508 23.6124L12.4486 23.6134C12.4483 23.6136 12.4472 23.6142 12 22.7197C11.5528 23.6142 11.5525 23.614 11.5522 23.6138L11.5492 23.6124L11.5427 23.6091L11.5212 23.5981C11.5032 23.5889 11.4777 23.5757 11.4453 23.5587C11.3806 23.5247 11.2881 23.4753 11.1719 23.411C10.9397 23.2825 10.6118 23.0938 10.22 22.849C9.43854 22.3606 8.39238 21.6418 7.3415 20.7223C5.28175 18.92 3 16.1662 3 12.7197V5.71973C3 5.30288 3.25857 4.92976 3.64888 4.7834L11.6489 1.7834ZM12 22.7197L11.5522 23.6138C11.8337 23.7546 12.1657 23.7549 12.4472 23.6142L12 22.7197ZM12 21.5825C12.1916 21.4739 12.4367 21.33 12.72 21.153C13.4385 20.7039 14.3924 20.0476 15.3415 19.2171C17.2817 17.5194 19 15.2733 19 12.7197V6.41273L12 3.78773L5 6.41273V12.7197C5 15.2733 6.71825 17.5194 8.6585 19.2171C9.60762 20.0476 10.5615 20.7039 11.28 21.153C11.5633 21.33 11.8084 21.4739 12 21.5825Z" fill="#0048DB"/>
<path d="M8 15.2197V12.7197C8 12.1674 8.44772 11.7197 9 11.7197H15C15.5523 11.7197 16 12.1674 16 12.7197V15.2197C16 15.772 15.5523 16.2197 15 16.2197H9C8.44772 16.2197 8 15.772 8 15.2197Z" stroke="#0048DB" stroke-width="2" stroke-linejoin="round"/>
<path d="M14 9.71973V10.9197C14 11.3616 13.6418 11.7197 13.2 11.7197H10.4C10.1791 11.7197 10 11.5406 10 11.3197V9.71973C10 8.61516 10.8954 7.71973 12 7.71973C13.1046 7.71973 14 8.61516 14 9.71973Z" stroke="#0048DB" stroke-width="2" stroke-linejoin="round"/>
</svg>
