<svg width="24" height="24" viewBox="0 0 24 24" fill="none" xmlns="http://www.w3.org/2000/svg">
<path d="M16.6902 5.69713C16.0171 4.92548 15.6125 3.91931 15.6125 2.81934H14.7691M16.6902 5.69713C17.3036 6.40063 18.1342 6.91227 19.0799 7.1126C19.3738 7.17656 19.6805 7.2107 20 7.2107V10.3656C18.3643 10.3656 16.8477 9.84123 15.6123 8.9544V15.3709C15.6123 18.577 13.0053 21.182 9.8062 21.182C8.13205 21.182 6.6198 20.4657 5.5591 19.3274C4.59212 18.2871 4 16.8972 4 15.3709C4 12.2117 6.53036 9.63656 9.66561 9.56834M16.6902 5.69713C16.6739 5.68645 16.6575 5.67566 16.6413 5.66476M7.65928 16.9142C7.34405 16.4794 7.15662 15.9465 7.15662 15.3666C7.15662 13.9043 8.34511 12.7148 9.80628 12.7148C10.0789 12.7148 10 11.5 10 11.5V9.61529C9.7444 9.58114 10.0746 9.5598 9.80628 9.5598C9.75939 9.5598 9.38194 9.58491 9.33508 9.58491M14.7646 2.81934H12.4558L12.4516 15.4689C12.4004 16.8844 11.2332 18.0228 9.8062 18.0228C8.92013 18.0228 8.14057 17.5837 7.65495 16.9186" stroke="#0048DB" stroke-width="1.68421" stroke-linejoin="round"/>
</svg>
