<svg width="24" height="24" viewBox="0 0 24 24" fill="none" xmlns="http://www.w3.org/2000/svg">
<path fill-rule="evenodd" clip-rule="evenodd" d="M5 12C4.44772 12 4 12.4477 4 13V20C4 20.5523 4.44772 21 5 21H19C19.5523 21 20 20.5523 20 20V13C20 12.4477 19.5523 12 19 12H5ZM2 13C2 11.3431 3.34315 10 5 10H19C20.6569 10 22 11.3431 22 13V20C22 21.6569 20.6569 23 19 23H5C3.34315 23 2 21.6569 2 20V13Z" fill="#0048DB"/>
<path fill-rule="evenodd" clip-rule="evenodd" d="M9 11C9.55228 11 10 10.5523 10 10V6.5C10 5.96957 10.2107 5.46086 10.5858 5.08579C10.9609 4.71071 11.4696 4.5 12 4.5C12.5304 4.5 13.0391 4.71071 13.4142 5.08579C13.7893 5.46086 14 5.96957 14 6.5C14 7.05228 14.4477 7.5 15 7.5C15.5523 7.5 16 7.05228 16 6.5C16 5.43913 15.5786 4.42172 14.8284 3.67157C14.0783 2.92143 13.0609 2.5 12 2.5C10.9391 2.5 9.92172 2.92143 9.17157 3.67157C8.42143 4.42172 8 5.43913 8 6.5V10C8 10.5523 8.44772 11 9 11Z" fill="#0048DB"/>
</svg>
