<svg width="24" height="24" viewBox="0 0 24 24" fill="none" xmlns="http://www.w3.org/2000/svg">
<g clip-path="url(#clip0_434_2648)">
<path fill-rule="evenodd" clip-rule="evenodd" d="M11.2929 11.2929C11.6834 10.9024 12.3166 10.9024 12.7071 11.2929L16.7071 15.2929C17.0976 15.6834 17.0976 16.3166 16.7071 16.7071C16.3166 17.0976 15.6834 17.0976 15.2929 16.7071L12 13.4142L8.70711 16.7071C8.31658 17.0976 7.68342 17.0976 7.29289 16.7071C6.90237 16.3166 6.90237 15.6834 7.29289 15.2929L11.2929 11.2929Z" fill="#0048DB"/>
<path fill-rule="evenodd" clip-rule="evenodd" d="M12 11C12.5523 11 13 11.4477 13 12V21C13 21.5523 12.5523 22 12 22C11.4477 22 11 21.5523 11 21V12C11 11.4477 11.4477 11 12 11Z" fill="#0048DB"/>
<path fill-rule="evenodd" clip-rule="evenodd" d="M8.66375 2.00854C10.0232 1.95846 11.3764 2.21721 12.6215 2.76536C13.8666 3.31351 14.9712 4.13678 15.8523 5.17329C16.5638 6.01022 17.1145 6.96858 17.4795 7.99998H18.0004C19.3335 8.00086 20.6289 8.44564 21.6811 9.26412C22.7333 10.0826 23.4829 11.2282 23.8118 12.52C24.1406 13.8119 24.0298 15.1764 23.497 16.3983C22.9641 17.6202 22.0395 18.6299 20.8691 19.268C20.3842 19.5323 19.7768 19.3535 19.5124 18.8686C19.2481 18.3837 19.4269 17.7763 19.9118 17.512C20.6921 17.0866 21.3085 16.4135 21.6637 15.5989C22.0189 14.7843 22.0928 13.8746 21.8736 13.0133C21.6543 12.1521 21.1546 11.3884 20.4531 10.8427C19.7517 10.2971 18.8885 10.0006 17.9998 9.99998H16.7404C16.2846 9.99998 15.8864 9.69166 15.7723 9.25029C15.5074 8.22588 15.0138 7.27483 14.3285 6.46866C13.6432 5.66249 12.784 5.02216 11.8156 4.59582C10.8472 4.16949 9.79476 3.96823 8.73738 4.00719C7.68001 4.04615 6.64522 4.3243 5.71081 4.82075C4.77641 5.31719 3.9667 6.01901 3.34258 6.87343C2.71845 7.72784 2.29614 8.71264 2.10739 9.75376C1.91864 10.7949 1.96837 11.8653 2.25284 12.8844C2.53731 13.9035 3.04912 14.8449 3.74978 15.6378C4.1155 16.0516 4.07649 16.6836 3.66264 17.0493C3.2488 17.415 2.61683 17.376 2.25112 16.9622C1.35026 15.9428 0.692227 14.7324 0.32648 13.4221C-0.0392667 12.1118 -0.103207 10.7356 0.139467 9.397C0.382141 8.05841 0.925114 6.79224 1.72756 5.69371C2.53002 4.59517 3.57106 3.69284 4.77244 3.05455C5.97382 2.41626 7.30426 2.05863 8.66375 2.00854Z" fill="#0048DB"/>
<path fill-rule="evenodd" clip-rule="evenodd" d="M11.2929 11.2929C11.6834 10.9024 12.3166 10.9024 12.7071 11.2929L16.7071 15.2929C17.0976 15.6834 17.0976 16.3166 16.7071 16.7071C16.3166 17.0976 15.6834 17.0976 15.2929 16.7071L12 13.4142L8.70711 16.7071C8.31658 17.0976 7.68342 17.0976 7.29289 16.7071C6.90237 16.3166 6.90237 15.6834 7.29289 15.2929L11.2929 11.2929Z" fill="#0048DB"/>
</g>
<defs>
<clipPath id="clip0_434_2648">
<rect width="24" height="24" fill="white"/>
</clipPath>
</defs>
</svg>
