<svg width="24" height="24" viewBox="0 0 24 24" fill="none" xmlns="http://www.w3.org/2000/svg">
	<path fill-rule="evenodd" clip-rule="evenodd" d="M10.529 2.28318C10.9782 2.03023 11.4852 1.89734 12.0008 1.89734C12.5164 1.89734 13.0233 2.03023 13.4725 2.28318C13.9218 2.53613 14.2983 2.90061 14.5658 3.34145L14.5686 3.3462L23.0386 17.4862L23.0467 17.5C23.3087 17.9537 23.4473 18.468 23.4488 18.9918C23.4502 19.5156 23.3145 20.0307 23.0551 20.4858C22.7957 20.9409 22.4217 21.3201 21.9702 21.5858C21.5187 21.8515 21.0055 21.9943 20.4817 22L20.4708 22.0001L3.51976 22.0001C2.99596 21.9943 2.48279 21.8515 2.03132 21.5858C1.57985 21.3201 1.20581 20.9409 0.946403 20.4858C0.686999 20.0307 0.551279 19.5156 0.552746 18.9918C0.554213 18.468 0.692815 17.9537 0.954763 17.5L0.962886 17.4862L9.43574 3.34145C9.70315 2.90061 10.0797 2.53613 10.529 2.28318ZM12.0008 3.89734C11.8289 3.89734 11.6599 3.94163 11.5102 4.02595C11.3611 4.10989 11.236 4.23067 11.147 4.37672L2.68344 18.5059C2.59826 18.6557 2.55322 18.825 2.55274 18.9974C2.55225 19.172 2.59749 19.3437 2.68396 19.4954C2.77043 19.6471 2.89511 19.7735 3.0456 19.8621C3.19477 19.9498 3.36415 19.9974 3.53715 20.0001H20.4644C20.6374 19.9974 20.8067 19.9498 20.9559 19.8621C21.1064 19.7735 21.2311 19.6471 21.3175 19.4954C21.404 19.3437 21.4493 19.172 21.4488 18.9974C21.4483 18.825 21.4033 18.6557 21.3181 18.506L12.8558 4.37871C12.8554 4.37805 12.8549 4.37738 12.8545 4.37672C12.7655 4.23067 12.6404 4.10989 12.4914 4.02595C12.3416 3.94163 12.1726 3.89734 12.0008 3.89734Z" fill="currentColor" />
	<path fill-rule="evenodd" clip-rule="evenodd" d="M12 8C12.5523 8 13 8.44772 13 9V13C13 13.5523 12.5523 14 12 14C11.4477 14 11 13.5523 11 13V9C11 8.44772 11.4477 8 12 8Z" fill="currentColor" />
	<path fill-rule="evenodd" clip-rule="evenodd" d="M11 17.0001C11 16.4478 11.4477 16.0001 12 16.0001H12.01C12.5623 16.0001 13.01 16.4478 13.01 17.0001C13.01 17.5524 12.5623 18.0001 12.01 18.0001H12C11.4477 18.0001 11 17.5524 11 17.0001Z" fill="currentColor" />
</svg>
