<svg width="24" height="24" viewBox="0 0 24 24" fill="none" xmlns="http://www.w3.org/2000/svg">
<path fill-rule="evenodd" clip-rule="evenodd" d="M12 2.56626C7.08204 2.56626 3.09524 6.54253 3.09524 11.4475C3.09524 13.3999 3.72566 15.2023 4.7948 16.6674L5.08255 17.0618L4.13482 20.8537L7.98889 19.3909L8.38363 19.5661C9.48737 20.0559 10.7103 20.3287 12 20.3287C16.918 20.3287 20.9048 16.3525 20.9048 11.4475C20.9048 6.54253 16.918 2.56626 12 2.56626ZM1 11.4475C1 5.38842 5.92487 0.476562 12 0.476562C18.0751 0.476562 23 5.38842 23 11.4475C23 17.5066 18.0751 22.4184 12 22.4184C10.5671 22.4184 9.19611 22.1447 7.9383 21.646L3.19333 23.447C2.32339 23.7772 1.44013 22.9957 1.66528 22.0948L2.81653 17.4886C1.66856 15.7558 1 13.6782 1 11.4475Z" fill="#0048DB"/>
<path fill-rule="evenodd" clip-rule="evenodd" d="M9.23672 7.42006L7.69336 9.17806C7.6734 9.2008 7.66309 9.22106 7.65856 9.23396C7.65597 9.24132 7.65541 9.2468 7.65541 9.2468C7.84014 11.018 9.24279 14.4629 13.9434 15.8039C13.9807 15.8145 14.0413 15.8086 14.0973 15.7559L15.222 14.6982L16.0941 13.7567L14.7307 12.4378L13.7516 13.5985C13.3868 14.031 12.7542 14.1795 12.2254 13.887C11.1959 13.3177 9.60272 12.175 9.31198 10.2925C9.26547 9.99133 9.35516 9.69875 9.53081 9.48091L10.3382 8.47955L9.23672 7.42006ZM8.42407 5.82833C8.81284 5.3855 9.48888 5.35673 9.9133 5.76496L11.8957 7.67174C12.2859 8.04701 12.3245 8.66137 11.9843 9.08319L11.0052 10.2975C11.2407 11.1191 11.9515 11.7723 12.7188 12.2475L13.8966 10.8512C14.2826 10.3937 14.9714 10.3585 15.4013 10.7744L17.682 12.9805C18.0901 13.3753 18.1078 14.0271 17.7219 14.4439L16.3932 15.8783L15.2268 16.9753C14.7753 17.3998 14.1232 17.5887 13.4925 17.4087C8.03768 15.8526 6.25251 11.7564 6.00911 9.42057C5.95413 8.893 6.15369 8.41447 6.45354 8.07292L8.42407 5.82833Z" fill="#0048DB"/>
</svg>
